<svg id="visual" viewBox="0 0 887 2775.86" width="887" height="2775.86" xmlns="http://www.w3.org/2000/svg" xmlns:xlink="http://www.w3.org/1999/xlink" version="1.1"><rect x="0" y="0" width="887" height="2775.86" fill="#002233"></rect><path d="M418 0L404.5 30.8C391 61.7 364 123.3 387.5 185C411 246.7 485 308.3 485.5 370C486 431.7 413 493.3 377.8 555C342.7 616.7 345.3 678.3 346.8 740C348.3 801.7 348.7 863.3 376.2 925C403.7 986.7 458.3 1048.3 467.5 1110C476.7 1171.7 440.3 1233.3 441.7 1295C443 1356.7 482 1418.3 486.7 1480.2C491.3 1542 461.7 1604 451.2 1665.8C440.7 1727.7 449.3 1789.3 473 1851C496.7 1912.7 535.3 1974.3 551.7 2036C568 2097.7 562 2159.3 551.7 2221C541.3 2282.7 526.7 2344.3 497.7 2406C468.7 2467.7 425.3 2529.3 396.2 2591C367 2652.7 352 2714.3 344.5 2745.2L337 2776" fill="none" stroke-linecap="round" stroke-linejoin="miter" stroke="#0066FF" stroke-width="40"></path></svg>